<?xml version="1.0" encoding="utf-8"?>
<svg width="100" height="100" viewBox="0 0 100 100" fill="none" xmlns="http://www.w3.org/2000/svg">
  <g>
    <rect width="100" height="100" />
    <g fill="#F654B5" fill-rule="evenodd">
      <path id="Oval" d="M0 50C0 22.3858 22.3858 0 50 0C77.6142 0 100 22.3858 100 50C100 77.6142 77.6142 100 50 100C22.3858 100 0 77.6142 0 50Z" />
      <path d="M50 0C22.3858 0 0 22.3858 0 50C0 77.6142 22.3858 100 50 100C77.6142 100 100 77.6142 100 50C100 22.3858 77.6142 0 50 0ZM18.8873 81.1127Q6 68.2254 6.00001 50Q6 31.7746 18.8873 18.8873Q31.7746 6 50 6.00001Q68.2254 6 81.1127 18.8873Q94 31.7746 94 50Q94 68.2254 81.1127 81.1127Q68.2254 94 50 94Q31.7746 94 18.8873 81.1127Z" fill="#D32F2F" fill-rule="evenodd" />
    </g>
    <g id="Group" transform="translate(19 16)">
      <path id="Path" d="M14.2012 0C16.7258 0 18.9349 2.29253 18.9349 4.91257C18.9349 4.91257 18.9349 29.4754 18.9349 29.4754C18.9349 32.0955 16.7258 34.388 14.2012 34.388C14.2012 34.388 4.73373 34.388 4.73373 34.388C2.20908 34.388 0 32.0955 0 29.4754C0 29.4754 0 4.91257 0 4.91257C0 2.29253 2.20908 0 4.73373 0C4.73373 0 14.2012 0 14.2012 0C14.2012 0 14.2012 0 14.2012 0Z" fill="#23C12D" transform="translate(45.065 24.029)" />
      <path id="Path" d="M14.2012 0C16.7258 0 18.9349 2.29253 18.9349 4.91257C18.9349 4.91257 18.9349 54.0383 18.9349 54.0383C18.9349 56.6583 16.7258 58.9509 14.2012 58.9509C14.2012 58.9509 4.73373 58.9509 4.73373 58.9509C2.20907 58.9509 0 56.6583 0 54.0383C0 54.0383 0 4.91257 0 4.91257C0 2.29253 2.20907 0 4.73373 0C4.73373 0 14.2012 0 14.2012 0C14.2012 0 14.2012 0 14.2012 0Z" fill="#1C8FBB" transform="translate(22.992 0)" />
      <path id="Path" d="M14.2012 0C16.7258 0 18.9349 2.29253 18.9349 4.91257C18.9349 4.91257 18.9349 39.3006 18.9349 39.3006C18.9349 41.9206 16.7258 44.2132 14.2012 44.2132C14.2012 44.2132 4.73373 44.2132 4.73373 44.2132C2.20907 44.2132 0 41.9206 0 39.3006C0 39.3006 0 4.91257 0 4.91257C0 2.29253 2.20907 0 4.73373 0C4.73373 0 14.2012 0 14.2012 0C14.2012 0 14.2012 0 14.2012 0Z" fill="#F8F123" transform="translate(0 14.787)" />
    </g>
  </g>
</svg>