<?xml version="1.0" encoding="utf-8"?>
<svg width="100" height="100" viewBox="0 0 100 100" fill="none" xmlns="http://www.w3.org/2000/svg">
  <g>
    <rect width="100" height="100" />
    <g fill="#179ED1" fill-rule="evenodd">
      <path id="Oval" d="M0 50C0 22.3858 22.3858 0 50 0C77.6142 0 100 22.3858 100 50C100 77.6142 77.6142 100 50 100C22.3858 100 0 77.6142 0 50Z" />
      <path d="M50 0C22.3858 0 0 22.3858 0 50C0 77.6142 22.3858 100 50 100C77.6142 100 100 77.6142 100 50C100 22.3858 77.6142 0 50 0ZM18.8873 81.1127Q6 68.2254 6.00001 50Q6 31.7746 18.8873 18.8873Q31.7746 6 50 6.00001Q68.2254 6 81.1127 18.8873Q94 31.7746 94 50Q94 68.2254 81.1127 81.1127Q68.2254 94 50 94Q31.7746 94 18.8873 81.1127Z" fill="#D32F2F" fill-rule="evenodd" />
    </g>
    <path id="Shape" d="M11.5714 15.1111L11.5714 51L0 51L0 15.1111L11.5714 15.1111L11.5714 15.1111ZM0 4.66556C0 2.02111 2.31429 0 5.78572 0C9.25715 0 11.4364 2.02111 11.5714 4.66556C11.5714 7.31 9.41143 9.44444 5.78572 9.44444C2.31429 9.44444 0 7.31 0 4.66556C0 4.66556 0 4.66556 0 4.66556ZM53.9999 51C53.9999 51 42.4285 51 42.4285 51C42.4285 51 42.4285 33.5089 42.4285 32.1111C42.4285 28.3333 40.4999 24.5556 35.6785 24.48C35.6785 24.48 35.5242 24.48 35.5242 24.48C30.857 24.48 28.9285 28.3711 28.9285 32.1111C28.9285 33.83 28.9285 51 28.9285 51C28.9285 51 17.357 51 17.357 51L17.357 15.1111L28.9285 15.1111C28.9285 15.1111 28.9285 19.9467 28.9285 19.9467C28.9285 19.9467 32.6506 15.1111 40.1335 15.1111C47.7899 15.1111 53.9999 20.2678 53.9999 30.7133C53.9999 30.7133 53.9999 51 53.9999 51L53.9999 51Z" fill="#FFFFFF" transform="translate(25 22)" />
  </g>
</svg>